<?xml version="1.0"?>
<svg xmlns="http://www.w3.org/2000/svg" xmlns:xlink="http://www.w3.org/1999/xlink" version="1.1" id="Capa_1" x="0px" y="0px" width="512px" height="512px" viewBox="0 0 158.798 158.798" style="enable-background:new 0 0 158.798 158.798;" xml:space="preserve" class=""><g><g>
	<g>
		<path style='fill:wihite' d="M145.064,10.479H13.732C6.182,10.479,0,16.665,0,24.211v87.461c0,7.558,6.187,13.734,13.732,13.734h60.063v11.705H31.771    l-5.604,5.604v5.604h106.463v-5.604l-5.604-5.604H85.002v-11.699h60.062c7.561,0,13.733-6.183,13.733-13.735V24.211    C158.798,16.665,152.625,10.479,145.064,10.479z M153.194,94.868c0,4.487-3.646,8.132-8.13,8.132H13.732    c-4.48,0-8.129-3.645-8.129-8.132V24.211c0-4.482,3.648-8.129,8.129-8.129h131.333c4.484,0,8.13,3.647,8.13,8.129V94.868z" data-original="#000000" class="active-path" data-old_color="#000000" fill="#A3A1A1"/>
		<g>
			<path style='fill:wihite' d="M118.074,58.145c-1.56-5.604-6.029-9.683-11.348-9.683c-0.061,0-0.121,0.022-0.176,0.022     c-0.854-10.646-8.458-19.018-17.817-19.018c-5.266,0-9.962,2.689-13.252,6.892c-2.076-2-4.706-3.255-7.608-3.255     c-6.518,0-11.79,6.063-11.963,13.611c-1.144-0.504-2.371-0.818-3.665-0.818c-5.738,0-10.389,5.425-10.389,12.109     c-4.06,0-7.352,3.838-7.352,8.561c0,4.722,3.292,8.555,7.352,8.555c0,0,9.152,0,21.053,0l-3.946-3.937V71.18l-5.374-5.357     l2.157-2.159c6.308-6.309,14.708-9.784,23.657-9.784c8.946,0,17.341,3.475,23.657,9.784l2.144,2.154l-5.363,5.367l-3.939,3.937     c11.896,0,21.045,0,21.045,0c4.062,0,7.354-3.838,7.354-8.555C124.291,62.299,121.599,58.782,118.074,58.145z" data-original="#000000" class="active-path" data-old_color="#000000" fill="#A3A1A1"/>
			<g>
				<path  d="M57.9,65.828l3.102,3.098C71.15,58.777,87.663,58.791,97.796,68.93l3.104-3.103C89.051,53.97,69.754,53.97,57.9,65.828z      " data-original="#000000" class="active-path" data-old_color="#000000" fill="#A3A1A1"/>
				<path d="M63.273,71.196l3.103,3.103c7.184-7.183,18.877-7.183,26.058,0l3.101-3.103C86.645,62.299,72.166,62.299,63.273,71.196z      " data-original="#000000" class="active-path" data-old_color="#000000" fill="#A3A1A1"/>
				<path d="M68.802,76.725l3.112,3.116c4.127-4.131,10.844-4.131,14.978,0l3.101-3.116C84.148,70.887,74.641,70.887,68.802,76.725z      " data-original="#000000" class="active-path" data-old_color="#000000" fill="#A3A1A1"/>
				<path d="M79.394,79.841c2.301,0,4.17,1.867,4.17,4.17c0,2.298-1.869,4.17-4.17,4.17c-2.304,0-4.169-1.872-4.169-4.17      C75.225,81.708,77.09,79.841,79.394,79.841z" data-original="#000000" class="active-path" data-old_color="#000000" fill="#A3A1A1"/>
			</g>
		</g>
	</g>
</g></g> </svg>
